<?xml version="1.0" encoding="UTF-8"?><svg id="Layer_2" xmlns="http://www.w3.org/2000/svg" xmlns:xlink="http://www.w3.org/1999/xlink" viewBox="0 0 235.06 219.22"><defs><style>.cls-1{fill:#ccc5c4;}.cls-2{fill:#fef3f0;}.cls-3{fill:#a39996;}.cls-4{fill:#3b302d;}.cls-5{fill:#efe8e6;}.cls-6{clip-path:url(#clippath);}.cls-7{fill:none;}.cls-8{fill:#7b6b67;}</style><clipPath id="clippath"><path class="cls-7" d="M78.02,98.64l7.77-12.55-9.42-24.16c-.79-3.43,21.53-8.66,24.74-7.23l1.89,17.28,11.21-9.18,19.44,42.57v41.91l-23.09,.06c-5.56,.01-10.61-2.35-12.93-7.41l-19.62-41.3Z"/></clipPath></defs><g id="art2.1"><g id="phone"><path id="bottom" class="cls-1" d="M0,173.7H235.06v9.01c0,1.61-1.3,2.91-2.91,2.91H2.76c-1.52,0-2.76-1.24-2.76-2.76v-9.16H0Z"/><path id="body" class="cls-2" d="M232.01,176.64H3.08c-1.67,0-2.99-1.41-2.89-3.07L10.43,2.72c.09-1.53,1.36-2.72,2.89-2.72H223.15c1.54,0,2.81,1.21,2.89,2.75l8.86,170.85c.09,1.66-1.23,3.05-2.89,3.05Z"/><g id="receiver"><path class="cls-3" d="M72.08,13.39H23.71c-2.24,0-4.1,1.74-4.25,3.97L9.49,163.42c-.17,2.46,1.78,4.55,4.25,4.55h51.37c2.27,0,4.15-1.79,4.26-4.06l6.97-146.06c.12-2.43-1.82-4.47-4.26-4.47Z"/><path class="cls-2" d="M71.06,13.51H23.61c-2.18,0-3.99,1.69-4.13,3.87L10.6,157.55c-.15,2.38,1.74,4.39,4.13,4.39H62.12c2.18,0,3.99-1.69,4.13-3.87L75.19,17.9c.15-2.38-1.74-4.39-4.13-4.39Z"/></g><g id="buttons"><g id="button"><rect id="shadow" class="cls-8" x="138.2" y="137.9" width="24.89" height="18.83" rx=".9" ry=".9"/><rect id="fg" class="cls-5" x="138.2" y="137.9" width="24.22" height="18.16" rx=".65" ry=".65"/><path class="cls-4" d="M152.31,144.65l-1.57,2.07v.03l2.49-.33v1.12l-2.49-.3v.03l1.59,1.98-1.04,.59-.99-2.31h-.03l-1.07,2.33-.94-.6,1.57-2.02v-.03l-2.45,.31v-1.12l2.43,.31v-.03l-1.55-2.02,1.01-.58,1.03,2.3h.03l1.01-2.31,.99,.56Z"/></g><g id="button-2"><rect id="shadow-2" class="cls-8" x="169.47" y="137.9" width="24.89" height="18.83" rx=".9" ry=".9"/><rect id="fg-2" class="cls-5" x="169.81" y="137.9" width="24.22" height="18.16" rx=".65" ry=".65"/><g id="number"><path class="cls-4" d="M183.21,151.66c-.53,.27-1.09,.4-1.68,.4s-1.14-.14-1.67-.42c-.53-.28-1-.66-1.4-1.15-.41-.5-.73-1.08-.96-1.75-.23-.67-.35-1.41-.35-2.21,0-.69,.1-1.37,.3-2.03,.2-.66,.49-1.24,.88-1.75,.37-.52,.84-.93,1.4-1.23,.56-.3,1.19-.45,1.89-.45s1.35,.16,1.89,.47c.54,.31,1,.73,1.38,1.25,.37,.52,.65,1.11,.84,1.77,.19,.66,.28,1.34,.28,2.05,0,.79-.13,1.52-.38,2.2-.25,.67-.58,1.25-.99,1.73-.42,.48-.89,.86-1.43,1.13Zm-3-.79c.43,.24,.88,.36,1.34,.36s.91-.11,1.35-.34,.82-.54,1.15-.95,.59-.9,.79-1.47c.2-.57,.3-1.2,.3-1.88,0-.57-.07-1.14-.22-1.7s-.37-1.06-.65-1.5c-.31-.44-.68-.8-1.12-1.07s-.95-.4-1.52-.4-1.08,.13-1.53,.39c-.45,.26-.82,.61-1.13,1.05-.3,.43-.53,.92-.69,1.48-.16,.56-.24,1.13-.24,1.71,0,.68,.09,1.31,.28,1.88s.44,1.06,.76,1.47c.33,.42,.71,.75,1.14,.98Z"/></g></g><g id="button-3"><rect id="shadow-3" class="cls-8" x="201.01" y="137.9" width="24.89" height="18.83" rx=".9" ry=".9"/><rect id="fg-3" class="cls-5" x="201.68" y="137.9" width="24.22" height="18.16" rx=".65" ry=".65"/><g id="number-2"><path class="cls-4" d="M210.42,151.94l.4-3.38h-1.7l.1-.84h1.7l.26-2.16h-1.68l.08-.84h1.7l.41-3.38h.88l-.43,3.38h2.18l.41-3.38h.88l-.43,3.38h1.95l-.08,.84h-1.95l-.26,2.16h1.93l-.1,.84h-1.93l-.4,3.38h-.88l.4-3.38h-2.16l-.4,3.38h-.88Zm1.37-4.23h2.16l.26-2.16h-2.16l-.26,2.16Z"/></g></g><g id="button_1"><g><rect id="shadow-4" class="cls-8" x="138.2" y="116.14" width="24.89" height="18.83" rx=".9" ry=".9"/><rect id="fg-4" class="cls-5" x="138.2" y="116.14" width="24.22" height="18.16" rx=".65" ry=".65"/></g><g id="number-3"><path class="cls-4" d="M148.7,130.18v-.83h1.3v-9.07h-1.45v-.84h2.33v9.91h1.3v.83h-3.48Z"/></g></g><g id="button-4"><rect id="shadow-5" class="cls-8" x="168.89" y="116.14" width="24.89" height="18.83" rx=".9" ry=".9"/><rect id="fg-5" class="cls-5" x="169.22" y="116.14" width="24.22" height="18.16" rx=".65" ry=".65"/><g id="number-4"><path class="cls-4" d="M177.9,130.18c.69-.68,1.37-1.35,2.02-2.01s1.23-1.29,1.73-1.91c.51-.61,.91-1.2,1.21-1.78s.45-1.12,.45-1.64-.07-.93-.22-1.27-.34-.62-.57-.83c-.23-.21-.48-.36-.75-.45-.27-.09-.52-.14-.75-.14-.48,0-.88,.08-1.17,.25-.3,.17-.53,.37-.71,.61-.18,.25-.3,.52-.37,.79-.07,.27-.11,.53-.11,.76,0,.38,.05,.71,.17,1,.11,.29,.28,.55,.5,.78l-.53,.53c-.31-.25-.55-.57-.73-.97-.18-.39-.26-.84-.26-1.35,0-.44,.07-.86,.21-1.25,.14-.4,.34-.74,.62-1.04,.26-.3,.6-.53,1-.7,.4-.17,.87-.26,1.4-.26,.47,0,.9,.09,1.29,.26,.38,.18,.72,.41,1.01,.71,.28,.31,.49,.66,.64,1.07,.15,.4,.23,.83,.23,1.3,0,.58-.13,1.16-.38,1.73-.25,.57-.58,1.13-.97,1.69-.41,.55-.86,1.1-1.35,1.64s-1,1.09-1.5,1.63h4.06v-1.68h.83v2.53h-6.97Z"/></g></g><g id="button-5"><rect id="shadow-6" class="cls-8" x="199.79" y="116.14" width="24.89" height="18.83" rx=".9" ry=".9"/><rect id="fg-6" class="cls-5" x="200.46" y="116.14" width="24.22" height="18.16" rx=".65" ry=".65"/><g id="number-5"><path class="cls-4" d="M213.07,130.03c-.42,.18-.88,.27-1.36,.27-.52,0-.99-.1-1.43-.31-.43-.21-.81-.48-1.13-.83l.63-.61c.23,.28,.51,.5,.83,.66,.32,.17,.68,.25,1.08,.25,.36,0,.71-.07,1.03-.21,.32-.14,.61-.33,.85-.59,.24-.23,.43-.51,.58-.83,.14-.32,.21-.66,.21-1.02s-.07-.69-.21-1.01c-.14-.32-.34-.6-.58-.84-.24-.23-.53-.42-.85-.55-.33-.14-.67-.21-1.03-.21-.19,0-.37,.03-.54,.07-.18,.05-.34,.13-.5,.24l2.84-4.24h-3.04v.94h-.83v-1.78h5.37l-2.79,4.03c.43,.07,.83,.2,1.19,.39s.68,.43,.96,.72c.26,.29,.48,.62,.64,1.01,.16,.38,.24,.8,.24,1.24,0,.48-.09,.94-.28,1.36s-.44,.79-.76,1.1c-.32,.32-.69,.57-1.11,.75Z"/></g></g><g id="button-6"><g><rect id="shadow-7" class="cls-8" x="138.2" y="94.05" width="24.89" height="18.83" rx=".9" ry=".9"/><rect id="fg-7" class="cls-5" x="138.2" y="94.05" width="24.22" height="18.16" rx=".65" ry=".65"/></g><g id="number-6"><path class="cls-4" d="M150.87,108.08v-.83h1.24v-2.2h-5.17l6.04-7.84v7h1.6v.84h-1.6v2.2h1.37v.83h-3.48Zm-2.18-3.86h3.42v-4.47l-3.42,4.47Z"/></g></g><g id="button-7"><rect id="shadow-8" class="cls-8" x="168.55" y="94.05" width="24.89" height="18.83" rx=".9" ry=".9"/><rect id="fg-8" class="cls-5" x="168.89" y="94.05" width="24.22" height="18.16" rx=".65" ry=".65"/><g id="number-7"><path class="cls-4" d="M182.24,107.94c-.42,.18-.88,.27-1.36,.27s-.91-.08-1.32-.26c-.41-.17-.77-.41-1.09-.72l.64-.58c.22,.23,.48,.41,.79,.53,.3,.12,.62,.18,.97,.18,.37,0,.72-.07,1.04-.21s.6-.33,.84-.59c.24-.23,.43-.51,.58-.83,.14-.32,.21-.66,.21-1.02s-.07-.7-.21-1.02c-.14-.31-.34-.59-.58-.82s-.53-.42-.85-.55c-.33-.14-.67-.21-1.03-.21-.39,0-.74,.06-1.06,.19-.32,.13-.57,.32-.76,.57v-5.55h4.74v1.78h-.83v-.94h-3.04v3.29c.14-.05,.29-.1,.45-.13,.16-.03,.33-.05,.5-.05,.47,0,.92,.09,1.35,.26,.43,.18,.8,.42,1.12,.73,.32,.32,.57,.69,.76,1.11,.19,.42,.28,.86,.28,1.34s-.09,.94-.28,1.36c-.19,.42-.44,.79-.76,1.1-.32,.32-.69,.57-1.11,.75Z"/></g></g><g id="button-8"><rect id="shadow-9" class="cls-8" x="198.91" y="94.05" width="24.89" height="18.83" rx=".9" ry=".9"/><rect id="fg-9" class="cls-5" x="199.58" y="94.05" width="24.22" height="18.16" rx=".65" ry=".65"/><g id="number-8"><path class="cls-4" d="M212.69,107.94c-.43,.18-.88,.27-1.35,.27s-.92-.09-1.34-.26c-.42-.18-.78-.42-1.09-.73-.32-.3-.57-.65-.76-1.06-.19-.41-.29-.84-.3-1.3,0-.8,.17-1.55,.5-2.24s.77-1.33,1.3-1.92c.53-.59,1.12-1.15,1.77-1.66,.65-.51,1.28-.99,1.9-1.44,.09,.11,.18,.22,.27,.34,.09,.12,.18,.23,.27,.34-.52,.34-.98,.68-1.4,1.01-.41,.33-.78,.65-1.1,.96s-.6,.6-.83,.88-.44,.54-.6,.79c.18-.19,.38-.34,.62-.45,.24-.11,.5-.17,.78-.17,.47,0,.92,.09,1.35,.27,.43,.18,.8,.43,1.12,.73,.32,.32,.57,.69,.75,1.11,.18,.42,.27,.86,.27,1.34s-.09,.94-.27,1.35c-.18,.42-.43,.78-.75,1.09-.32,.32-.69,.57-1.12,.75Zm-2.38-.78c.32,.14,.66,.21,1.02,.21s.69-.07,1.02-.21c.32-.14,.61-.33,.85-.57,.24-.23,.43-.51,.57-.83s.21-.66,.21-1.02-.07-.7-.21-1.02c-.14-.31-.33-.59-.57-.83-.24-.23-.52-.42-.84-.55s-.66-.21-1.02-.21-.7,.07-1.02,.21-.59,.32-.83,.55c-.23,.24-.42,.52-.55,.83-.14,.31-.21,.65-.21,1.02s.07,.7,.21,1.02,.32,.59,.55,.83c.23,.24,.51,.43,.83,.57Z"/></g></g><g id="button-9"><g><rect id="shadow-10" class="cls-8" x="138.2" y="71.95" width="24.89" height="18.83" rx=".9" ry=".9"/><rect id="fg-10" class="cls-5" x="138.2" y="71.95" width="24.22" height="18.16" rx=".65" ry=".65"/></g><g id="number-9"><path class="cls-4" d="M148.18,85.99l4.47-9.89h-4.56v.94h-.83v-1.78h6.74l-4.82,10.73h-1.01Z"/></g></g><g id="button-10"><rect id="shadow-11" class="cls-8" x="168.22" y="71.95" width="24.89" height="18.83" rx=".9" ry=".9"/><rect id="fg-11" class="cls-5" x="168.55" y="71.95" width="24.22" height="18.16" rx=".65" ry=".65"/><g id="number-10"><path class="cls-4" d="M182,85.85c-.42,.18-.88,.27-1.36,.27s-.94-.09-1.35-.27-.78-.43-1.09-.75c-.32-.31-.57-.67-.75-1.1-.18-.42-.27-.88-.27-1.36,0-.38,.06-.75,.18-1.1s.29-.66,.49-.95c.18-.23,.38-.43,.61-.61,.23-.18,.48-.32,.76-.43-.33-.19-.6-.45-.8-.79-.2-.34-.3-.72-.3-1.14,0-.34,.06-.66,.2-.97s.31-.57,.54-.8c.22-.22,.48-.4,.79-.53s.63-.2,.98-.2,.67,.07,.97,.2c.31,.13,.58,.31,.81,.54,.22,.23,.4,.5,.53,.8,.13,.3,.2,.63,.2,.98,0,.41-.1,.78-.3,1.11-.2,.34-.46,.6-.78,.79,.26,.11,.51,.25,.74,.41,.23,.17,.43,.36,.61,.58,.23,.3,.41,.62,.54,.97,.13,.35,.2,.73,.2,1.12,0,.49-.09,.94-.28,1.36-.19,.42-.44,.79-.76,1.1-.32,.32-.69,.57-1.11,.75Zm-2.39-.78c.32,.15,.65,.22,1.01,.22s.71-.07,1.03-.21c.32-.14,.61-.34,.85-.59,.24-.23,.44-.51,.58-.83s.21-.66,.21-1.02-.07-.68-.21-.99-.33-.58-.56-.83c-.24-.23-.52-.42-.83-.56-.31-.14-.65-.21-1.02-.21s-.72,.07-1.04,.21c-.32,.14-.59,.32-.82,.54-.23,.24-.42,.52-.55,.83-.14,.31-.21,.65-.21,1.01s.07,.71,.2,1.02c.13,.32,.31,.59,.54,.83,.23,.24,.51,.44,.83,.59Zm.03-6.32c.16,.13,.35,.23,.56,.3,.2,.04,.39,.06,.58,.04s.37-.06,.54-.14,.33-.18,.46-.31c.12-.13,.22-.29,.27-.46,.07-.2,.1-.4,.09-.6,0-.2-.05-.4-.14-.59-.09-.2-.21-.37-.36-.51-.15-.14-.33-.25-.53-.31-.2-.05-.4-.07-.59-.06-.2,.02-.38,.07-.56,.16-.19,.09-.35,.21-.48,.37-.13,.16-.23,.33-.3,.52-.05,.2-.08,.39-.07,.58,.01,.19,.06,.37,.15,.54,.09,.19,.21,.35,.38,.48Z"/></g></g><g id="button-11"><rect id="shadow-12" class="cls-8" x="198.03" y="71.95" width="24.89" height="18.83" rx=".9" ry=".9"/><rect id="fg-12" class="cls-5" x="198.7" y="71.95" width="24.22" height="18.16" rx=".65" ry=".65"/><g id="number-11"><path class="cls-4" d="M210.38,84.71c-.64,.51-1.27,.99-1.88,1.43-.09-.12-.18-.24-.27-.35s-.19-.23-.27-.35c.62-.4,1.16-.79,1.63-1.17,.47-.38,.88-.75,1.23-1.11,.25-.25,.47-.5,.65-.73,.18-.23,.33-.45,.45-.64-.19,.2-.4,.35-.64,.46-.24,.11-.51,.17-.79,.17-.47,0-.93-.09-1.36-.26-.43-.18-.8-.42-1.11-.74-.33-.31-.59-.67-.77-1.09-.18-.42-.27-.87-.27-1.35s.09-.94,.28-1.35c.19-.42,.44-.78,.76-1.09,.31-.32,.68-.57,1.11-.75,.43-.18,.88-.27,1.36-.27s.94,.09,1.36,.28c.42,.19,.79,.43,1.12,.74,.31,.32,.55,.69,.73,1.11,.18,.42,.27,.86,.27,1.34,0,.77-.17,1.5-.51,2.18-.34,.68-.78,1.32-1.32,1.9-.53,.59-1.12,1.15-1.76,1.66Zm-.91-3.33c.32,.13,.67,.2,1.03,.2s.69-.07,1.01-.2c.32-.13,.6-.32,.84-.56,.23-.23,.41-.51,.54-.83s.2-.66,.2-1.02-.06-.7-.2-1.02-.31-.59-.54-.83c-.24-.24-.52-.43-.84-.57-.32-.14-.66-.21-1.01-.21s-.71,.07-1.03,.21c-.33,.14-.6,.33-.83,.57-.24,.24-.44,.52-.58,.83s-.21,.65-.21,1.02,.07,.7,.21,1.02,.34,.59,.58,.83c.23,.24,.51,.43,.83,.56Z"/></g></g></g><g id="audio"><g id="button_play"><rect id="shadow-13" class="cls-8" x="107.39" y="48.9" width="24.89" height="18.83" rx=".9" ry=".9"/><rect id="fg-13" class="cls-5" x="107.39" y="48.9" width="24.22" height="18.16" rx=".65" ry=".65"/><path class="cls-4" d="M116.71,61.53v-7.09l5.57,3.54-5.57,3.54Zm.76-1.38l3.4-2.16-3.4-2.16v4.33Z"/></g><g id="button_pause"><rect id="shadow-14" class="cls-8" x="136.88" y="48.9" width="24.89" height="18.83" rx=".9" ry=".9"/><rect id="fg-14" class="cls-5" x="137.22" y="48.9" width="24.22" height="18.16" rx=".65" ry=".65"/><path class="cls-4" d="M150.4,61.53v-7.09h1.96v7.09h-1.96Zm-4.11,0v-7.09h1.96v7.09h-1.96Z"/></g><g id="button_stop"><rect id="shadow-15" class="cls-8" x="166.94" y="48.9" width="24.89" height="18.83" rx=".9" ry=".9"/><rect id="fg-15" class="cls-5" x="167.27" y="48.9" width="24.22" height="18.16" rx=".65" ry=".65"/><path class="cls-4" d="M176.73,55.33v0Zm-.89,6.2v-7.09h7.09v7.09h-7.09Zm.89-.89h5.31v-5.31h-5.31v5.31Z"/></g><g id="button-12"><rect id="shadow-16" class="cls-8" x="196.84" y="48.9" width="24.89" height="18.83" rx=".9" ry=".9"/><rect id="fg-16" class="cls-5" x="197.51" y="48.9" width="24.22" height="18.16" rx=".65" ry=".65"/><circle class="cls-4" cx="209.62" cy="57.98" r="3.54"/></g></g><g><g class="cls-6"><g><g><g><path class="cls-4" d="M46.37,141.82c2.07,.56,4.53,.23,7.33-.97,6.52-2.81,6.84-3.88,6.78-4.14-.04-.16-.28-.31-.68-.42-.93-.25-2.37-.2-2.52-.19-.34,.05-6.35,.92-11.64-.51-2.62-.71-4.66-1.86-6.06-3.44,.15,.89,.46,2.37,1.09,3.92,1.28,3.14,3.19,5.07,5.69,5.75Z"/><path class="cls-2" d="M59.86,136.06l-.13,.47c.38,.1,.49,.21,.51,.24,0,.05-.1,.4-1.23,1.14-1.12,.74-2.94,1.66-5.41,2.72-2.75,1.18-5.16,1.51-7.17,.96-1.32-.36-2.49-1.1-3.48-2.2-.81-.9-1.5-2.05-2.05-3.41-.46-1.14-.75-2.23-.93-3.08,1.4,1.31,3.27,2.3,5.61,2.93,2.86,.77,5.9,.87,7.95,.82,2.08-.05,3.55-.27,3.77-.3,.2,0,1.55-.05,2.43,.19h0s.13-.47,.13-.47h0Zm0,0c-1.03-.28-2.6-.2-2.6-.2,0,0-6.12,.97-11.55-.5-2.55-.69-4.95-1.92-6.49-4.04,0,0,0,0,0,0,.02,.27,.89,9.06,7.08,10.74,1.93,.52,4.38,.35,7.49-.98,5.6-2.41,7.08-3.71,6.92-4.42-.07-.29-.41-.48-.85-.6h0Z"/></g><g><path class="cls-2" d="M44.5,142.85c1.6,.32,3.5,.02,5.66-.87,.13-.05,.18-.08,.23-.09,0,0,0,0,.01,0,.01,0,.02,0,.03,0,1.02-.2,2.12-.55,3.27-1.04,4.71-2.03,6.18-3.15,6.61-3.71-1.72,.85-6.99,3.18-11.97,2.63-.63-.07-1.25-.18-1.83-.34-1.55-.42-2.92-1.16-4.06-2.2-1.22-1.11-2.21-2.58-2.95-4.39,.14,1.46,.57,2.67,1.29,3.54,.06,.07,.07,.16,.04,.24-.03,.08-.11,.14-.19,.15-.15,.02-.29,.02-.42,0,.46,1.72,2.21,2.43,2.23,2.44,.11,.04,.17,.15,.15,.27-.02,.11-.12,.2-.23,.2-.25,.01-.55-.02-.92-.1,.62,.35,1.32,.56,1.6,.63,.07,.02,.11,.03,.11,.03,0,0,0,0,0,0,.08,.02,.15,.09,.17,.17,.02,.09,0,.18-.07,.24-.22,.2-.61,.37-.95,.5,1.22,.33,3.04,.4,3.06,.4,.02,0,.04,0,.05,0,.06,.02,.12,.06,.15,.12,.04,.08,.04,.17,0,.24-.24,.4-.69,.71-1.06,.91Z"/><path class="cls-4" d="M58.58,138.18c-1.14,.69-2.81,1.51-4.98,2.44-1.13,.49-2.21,.83-3.22,1.02-.01,0-.03,0-.04,0,0,0-.02,0-.02,0-.06,.02-.12,.04-.25,.1-1.84,.76-3.48,1.08-4.89,.95,.23-.18,.44-.39,.6-.64,.09-.15,.1-.33,.01-.49-.06-.12-.17-.21-.3-.24-.03,0-.07-.02-.11-.02-.01,0-1.21-.05-2.29-.24,.13-.07,.25-.15,.34-.24,.13-.12,.19-.31,.14-.48-.04-.17-.18-.3-.34-.35,0,0-.01,0-.02,0,0,0-.04,0-.1-.03-.15-.04-.3-.09-.46-.14,.1-.07,.17-.18,.2-.31,.04-.23-.09-.45-.3-.54-.02,0-1.44-.6-1.98-1.96,.04,0,.08,0,.11-.01,.17-.03,.32-.14,.39-.31,.06-.16,.03-.35-.08-.49-.34-.41-.61-.9-.82-1.47,.6,1.04,1.31,1.93,2.12,2.66,1.17,1.07,2.57,1.83,4.16,2.26,.59,.16,1.22,.28,1.86,.35,3.82,.42,7.8-.83,10.26-1.83h0Zm2.13-1.52c-.74,.4-6.73,3.49-12.34,2.87-.6-.07-1.2-.17-1.79-.33-1.42-.38-2.77-1.06-3.96-2.15-1.41-1.28-2.6-3.13-3.4-5.73,.01,.14-.25,3.22,1.38,5.21-.21,.03-.37,.01-.49-.02s-.19-.08-.22-.11c.29,2.18,2.46,3.04,2.46,3.04-.4,.02-.91-.1-1.32-.21-.28-.08-.51-.15-.62-.18-.07-.02-.09-.02-.02,.02,.67,.81,2.14,1.26,2.57,1.37,.08,.02,.12,.03,.12,.03-.41,.37-1.55,.66-1.55,.66,.19,.1,.43,.18,.69,.25,1.26,.34,3.12,.41,3.12,.41-.42,.69-1.57,1.11-1.57,1.11,.08,.03,.17,.05,.26,.08,2.94,.8,6.15-.79,6.41-.87,0,0,.02,0,.02,0,1.01-.19,2.12-.54,3.33-1.06,5.6-2.41,7.08-3.71,6.92-4.42h0Z"/></g></g><path class="cls-4" d="M108.58,98.21s3.89-4.14,4.44-6.74c.55-2.6-.45-7.98-.62-9.66-.17-1.68-6.2,2.8-6.75,7.23-.55,4.43,1.36,7.41,1.32,9.52-.04,2.11,1.62-.35,1.62-.35Z"/><g><path class="cls-4" d="M109.23,96.89s.06,.01,.09,.02c.36,.04,.68-.21,.73-.56,.06-.51,1.48-12.43-5.03-17.26-6.16-4.57-10.56-8.99-12.01-15.71-.08-.35-.42-.57-.77-.5-.35,.08-.57,.42-.5,.77,1.54,7.11,6.11,11.73,12.51,16.48,5.89,4.37,4.52,15.94,4.51,16.05-.04,.33,.17,.63,.47,.71Z"/><path class="cls-4" d="M109.37,92.88c.22,.06,.47,0,.64-.18,.22-.24,5.46-5.87,6.09-12.01,.04-.36-.22-.68-.58-.71-.36-.04-.68,.22-.71,.58-.58,5.7-5.69,11.2-5.75,11.26-.25,.26-.23,.67,.03,.92,.08,.08,.18,.13,.28,.15Z"/><path class="cls-4" d="M112.32,88.97c.16,.04,.34,.02,.5-.07,.31-.18,.41-.58,.23-.89h0s-2.61-4.47-1.92-9.57c.05-.36-.2-.68-.56-.73-.36-.05-.68,.2-.73,.56-.75,5.56,1.97,10.22,2.09,10.41,.09,.15,.23,.25,.39,.3Z"/><path class="cls-4" d="M97.7,74.36c.09,.02,.19,.03,.29,.01,.35-.06,.59-.4,.52-.76,0-.05-.74-4.37,2.14-9.14,.19-.31,.09-.71-.22-.89-.31-.19-.71-.09-.89,.22-3.14,5.22-2.34,9.85-2.3,10.05,.05,.25,.24,.45,.47,.51Z"/><path class="cls-4" d="M97.42,75.86c1.32,.36,2.26,.47,2.34,.48,.36,.04,.68-.22,.72-.57,.04-.36-.22-.68-.57-.72h0s-3.59-.43-6.47-2.29c-.3-.2-.7-.11-.9,.19-.19,.3-.11,.7,.19,.9,1.59,1.03,3.33,1.65,4.69,2.02Z"/></g><g><g><path class="cls-4" d="M106.04,98.32c.05,.01,.11,.02,.17,.02,.36,0,.65-.29,.65-.65,0-.36-.07-8.9-7.15-12.86-.91-.51-1.97-1.02-3.1-1.56-6.76-3.24-16.02-7.67-16.77-22.11-.02-.36-.32-.63-.68-.62-.36,.02-.63,.32-.62,.68,.79,15.21,10.85,20.03,17.51,23.21,1.11,.53,2.16,1.03,3.03,1.52,6.4,3.58,6.49,11.64,6.49,11.72,0,.3,.2,.55,.48,.63Z"/><path class="cls-4" d="M90.25,81.37c.13,.04,.28,.03,.42-.03,.33-.14,.49-.52,.35-.85-.03-.08-3.3-8.04-2.08-15.85,.06-.35-.19-.69-.54-.74-.35-.06-.69,.19-.74,.54-1.28,8.18,2.02,16.22,2.17,16.56,.08,.19,.24,.33,.43,.38Z"/><path class="cls-4" d="M88.82,76.76c.34,.09,.7-.11,.79-.45,.01-.05,1.36-4.63,3.34-7.36,.21-.29,.15-.7-.14-.91-.29-.21-.7-.15-.91,.14-2.11,2.91-3.47,7.57-3.53,7.76-.1,.34,.1,.71,.44,.81,0,0,0,0,.01,0Z"/><path class="cls-4" d="M103.33,89.8s.03,0,.05,.01c.35,.07,.69-.17,.76-.52,.08-.41,1.85-10.2-2.55-16.86-.2-.3-.6-.38-.9-.18-.3,.2-.38,.6-.18,.9,4.1,6.22,2.37,15.81,2.36,15.9-.06,.34,.14,.66,.47,.75Z"/></g><path class="cls-4" d="M103.58,84.38c.14,.04,.3,.03,.45-.04,.32-.15,.46-.54,.31-.86-.08-.16-1.92-3.99-8.14-6.4-.33-.13-.71,.04-.84,.37-.13,.33,.04,.71,.37,.84,5.7,2.21,7.41,5.7,7.43,5.73,.09,.18,.24,.3,.42,.35Z"/></g><g><path class="cls-4" d="M80.59,202.65c-.88,3.17-1.44,5.6-1.75,7.43-1.26,7.2,1.12,5.12,2.03,1.7,.05-.17,.1-.38,.17-.6,1.08-3.69,4.61-13.59,7.62-21,2.01-4.96,5.9-12.3,9.59-18.81,2.53-4.46,4.95-8.53,6.6-11.18,5.13-8.22-13.37,2.17-15.79,8.4-.47,1.2-1,2.96-1.57,5.06-2.38,8.78-5.4,23.57-6.9,29Z"/><path class="cls-4" d="M89.06,168.59c-.47,1.2-1,2.96-1.57,5.06,4.51-.33,8.11-1.29,10.75-2.27,2.53-4.46,4.95-8.53,6.6-11.18,5.13-8.22-13.37,2.17-15.79,8.4Z"/><g><path class="cls-2" d="M78.99,214.67s.08,0,.13-.04c.42-.24,1.09-1.35,1.51-2.91,.03-.12,.07-.24,.1-.36-.01,0-.02,0-.03,0-.58-.16-1.15-.44-1.69-.83-.64,3.86-.02,4.14-.02,4.15Z"/><path class="cls-4" d="M79.19,210.94c.4,.25,.82,.45,1.24,.59-.01,.04-.02,.08-.03,.12-.2,.74-.47,1.44-.78,1.99-.24,.42-.43,.64-.54,.73-.09-.25-.25-1.07,.12-3.43h0Zm-.35-.86c-.59,3.35-.39,4.7,.09,4.82,.55,.15,1.45-1.3,1.94-3.13,.05-.17,.1-.38,.17-.6-.09-.02-.18-.04-.27-.06-.57-.15-1.24-.46-1.93-1.04h0Z"/></g></g><g><path class="cls-4" d="M54.51,170.2c-1.09,6.07-1.05,18.79,.27,27.94,.23,1.6,.52,2.97,.82,4.1,1.44,5.34,3.4,5.58,2.82,1.59-.04-.27-.1-.74-.17-1.37-.62-5.46-1.88-22.94,5.5-27.15,1.8-1.02,3.56-2.34,5.18-3.79,5.84-5.2,9.97-12.18,7.87-14.01-10.37-9.03-18.17,1.55-21.12,8.86-.6,1.47-.99,2.81-1.18,3.82Z"/><path class="cls-4" d="M55.68,166.38c4.75,2.33,9.17,4,13.25,5.15,5.84-5.2,9.97-12.18,7.87-14.01-10.37-9.03-18.17,1.55-21.12,8.86Z"/><g><path class="cls-2" d="M57.89,206.33c.07,.02,.1,0,.14-.03,.21-.18,.37-.93,.15-2.42-.02-.15-.08-.55-.15-1.16-.63,0-1.33-.06-2.09-.17,.8,2.78,1.62,3.69,1.95,3.78Z"/><path class="cls-4" d="M57.81,202.95c.06,.5,.11,.82,.13,.96,.2,1.35,.06,1.97-.04,2.15-.1-.06-.35-.27-.7-.92-.32-.59-.63-1.38-.92-2.31,.55,.06,1.06,.1,1.53,.12h0Zm.43-.48c-.9,0-1.86-.1-2.65-.22,.74,2.75,1.62,4.15,2.22,4.31,.56,.15,.88-.79,.6-2.72-.04-.27-.1-.74-.17-1.37h0Z"/></g></g><path class="cls-4" d="M87.87,162.67c12.78,1.39,20.09-3.63,24.23-9.27,4.06-5.52,5.08-12.67,3.02-19.22-3.76-11.97-2.4-23.81-2.4-23.81,2.87,1.05,7.04,1.76,10.46,1.84,4.45,.11,7.62-.83,5-3.43-.92-.91-2.61-2.31-4.58-3.96-2.05-1.71-4.26-3.86-6.5-5.72-4.55-3.76-11.85-3.85-14.01-.34-2.47,4.03-3.64,21.75-5.37,28.08-.13,.46-.25,.86-.39,1.19-.98,2.44-2.64,8.03-15.61,9.24-10.89,1.01-22.57-2.98-27.78-1-.99,.38-1.75,.97-2.23,1.86-2.96,5.54,9.27,21.62,36.15,24.54Z"/><g><path class="cls-4" d="M88.75,85.55c-.17,2.2,1.43,7.52,4.62,9.72,4.24,2.92,8.29,2.6,10.43,3.77,.56,.3,.86,.33,1,.19,.04-.03,.06-.08,.07-.13,.16-.53-.58-1.88-.58-1.88,0,0-2.2-6.12-4.58-8.06-2.37-1.94-8.4-3.81-10.21-4.54-.3-.12-.51,.01-.63,.33,0,0,0,.01,0,.02-.06,.15-.1,.35-.11,.58Z"/><path class="cls-2" d="M88.87,84.94c1.25,3.56,3.07,5.65,4.07,6.58,1.44,1.34,8.95,5.42,11.86,7.7,.04-.03,.06-.08,.07-.13-1.12-1.45-4.26-5.54-5.78-7.83-1.66-2.5-6.79-3.42-10.22-6.32Z"/></g><g><path class="cls-4" d="M68.6,214.98c-.62,5.44,1.23,5.23,2.04,1.75,.08-.37,.22-.85,.4-1.43,2.23-7.2,11.39-29.72,18.83-39.66,8.03-10.73,12.53-24.48,11.57-25.87-11.46-16.57-17.78,8.85-19.88,19.32-2.1,10.47-8.34,28.6-10.66,36.03-1.36,4.37-2.04,7.59-2.3,9.85Z"/><g><path class="cls-2" d="M69.18,218.98s.09,0,.15-.04c.29-.17,.74-.87,1.07-2.27,.07-.29,.17-.67,.31-1.13-.52-.01-1.19-.07-1.9-.26-.29,2.85,.17,3.63,.37,3.69Z"/><path class="cls-4" d="M70.38,215.78c-.1,.33-.17,.61-.22,.84-.31,1.33-.73,1.95-.92,2.09-.15-.21-.39-1.06-.21-3.12,.49,.11,.96,.16,1.36,.18h0Zm.65-.47c-.61,0-1.41-.04-2.23-.27-.07-.02-.14-.04-.21-.06-.32,2.79,.01,4.1,.52,4.24,.48,.13,1.12-.79,1.52-2.48,.08-.37,.22-.85,.4-1.43h0Z"/></g></g><g><path class="cls-4" d="M38.61,170.04c-3.86,16.06-2.67,27.6-2.1,33.38,.45,4.54,1.61,5.69,2.45,3.14,.15-.47,.27-1.37,.39-2.58,.74-7.46,1.75-26.76,14.26-30.46,14.54-4.3,18.92-22.18,18.05-27.48-1.63-9.93-16.47-10.04-16.47-10.04,0,0-4.03,.48-5.11,4.11-1.08,3.64-2.09,12.5-5.05,19.38,0,.02-.02,.04-.02,.06,0,0,0,.01-.01,.02-3.53,7.97-6.4,10.47-6.4,10.47Z"/><g><path class="cls-2" d="M37.98,207.65c.17,.05,.47-.29,.76-1.16,.15-.44,.26-1.35,.35-2.29-.63-.08-1.47-.22-2.3-.44,.33,2.9,.89,3.81,1.18,3.89Z"/><path class="cls-4" d="M38.82,204.4c-.09,.84-.19,1.62-.32,2.01-.23,.69-.42,.91-.49,.98-.19-.17-.64-1-.93-3.31,.62,.15,1.24,.25,1.74,.33h0Zm.53-.42c-.76-.09-1.71-.25-2.62-.5-.08-.02-.15-.04-.22-.06,.28,2.79,.83,4.3,1.4,4.46,.36,.1,.73-.34,1.05-1.32,.15-.47,.27-1.37,.39-2.58h0Z"/></g></g><g><path class="cls-2" d="M123.33,111.97c3.08,.06,5.13-.4,5.49-1.25,.23-.55-.31-1.26-.82-1.76-.81-.8-2.25-2-3.91-3.39l-.49-.41c-.7,.6-1.15,1.35-1.32,2.21-.27,1.3,.09,2.85,1.05,4.59Z"/><path class="cls-4" d="M123.61,105.5c.11,.09,.22,.18,.32,.27,1.66,1.39,3.09,2.58,3.89,3.38,.63,.63,.9,1.15,.76,1.48-.23,.54-1.71,1.14-5.1,1.09-1.76-3.26-.99-5.16,.12-6.22h0Zm0-.67c-1.26,.99-2.8,3.19-.42,7.39,4.45,.11,7.62-.83,5-3.43-.92-.91-2.61-2.31-4.58-3.96h0Z"/></g><g><path class="cls-2" d="M101.77,161.12c1.43-.27,5.6-1.28,9.29-4.25,.06-.05,.14-.07,.22-.05,.04,.01,.09,.04,.12,.07,.19,.22,.47,.54,.68,.81,.2-.93,.68-2.31,.71-2.39,.04-.12,.16-.19,.28-.16,.02,0,.04,0,.05,.01,.36,.1,.6,.35,.75,.63,.38-1.29,1.07-3.26,1.11-3.37,.02-.07,.08-.12,.15-.15,.05-.02,.1-.02,.15,0,.02,0,.04,.01,.06,.03,.35,.21,.58,.67,.72,1.07,.8-2.29,.81-5.22,.81-5.26,0-.09,.05-.18,.13-.22,.05-.03,.12-.03,.17-.02,.03,0,.06,.02,.08,.04,.43,.32,.87,.67,1.16,.91,0-2.05-.67-4.31-.76-4.6-.03-.09,0-.19,.06-.25,.06-.06,.15-.08,.23-.06,.02,0,.04,.01,.06,.03,.38,.23,.77,.4,1.17,.51,.24,.06,.45,.1,.63,.12-.86-1.06-1.67-2.6-2.4-4.59-.82-2.22-1.26-4.24-1.3-4.41,0,0,0,0,0,0,0,0,0-.01,0-.02-1.43-4.29-3.58-10.76-3.64-24.77-.54,.29-1.65,.99-2.78,2.39-1.46,1.79-3.26,5.1-3.57,10.73-.17,3.13,.14,6.18,.48,9.42,.85,8.17,1.72,16.61-4.83,27.82Z"/><path class="cls-4" d="M112.23,111.19c.1,13.76,2.23,20.16,3.65,24.42,0,0,0,0,0,0,.05,.22,.49,2.23,1.31,4.44,.64,1.72,1.33,3.11,2.06,4.15-.38-.1-.75-.26-1.11-.48-.04-.02-.08-.04-.13-.05-.16-.04-.34,0-.47,.12-.14,.14-.18,.34-.12,.51,.07,.24,.63,2.14,.73,3.98-.23-.18-.49-.39-.76-.58-.05-.04-.1-.06-.16-.08-.11-.03-.24-.02-.35,.04-.16,.08-.27,.25-.27,.44,0,.03,0,2.44-.6,4.57-.14-.24-.32-.46-.55-.6-.04-.02-.08-.04-.12-.05-.1-.03-.2-.02-.29,.01-.14,.05-.25,.16-.29,.3-.03,.09-.58,1.66-.98,2.92-.16-.15-.35-.27-.59-.34-.02,0-.04-.01-.07-.02-.25-.05-.49,.09-.57,.32-.04,.13-.38,1.08-.6,1.94-.13-.16-.27-.32-.38-.44-.07-.07-.15-.12-.24-.15-.15-.04-.31-.01-.43,.09-3.27,2.64-6.92,3.71-8.66,4.09,6.29-11.06,5.39-19.78,4.59-27.49-.33-3.23-.65-6.28-.48-9.38,.14-2.48,.57-4.71,1.3-6.63,.57-1.53,1.33-2.87,2.24-3.98,.9-1.09,1.76-1.74,2.33-2.1h0Zm.48-.81s-6.23,2.42-6.84,13.49c-.61,11.07,4.91,21.71-4.59,37.58,0,0,5.3-.66,9.92-4.39,.36,.41,1.02,1.23,1.02,1.23,.02-.71,.75-2.81,.78-2.9h0s.03,0,.04,0c.74,.2,.83,1.26,.83,1.26,.19-.94,1.32-4.16,1.32-4.16,.59,.35,.79,1.65,.79,1.65,1.11-2.42,1.1-6.04,1.1-6.04,.78,.57,1.54,1.23,1.54,1.23,.13-2.28-.73-5.09-.76-5.19h0c.45,.27,.87,.44,1.24,.53,.73,.2,1.23,.13,1.23,.13-1.15-1.21-2.06-3.14-2.72-4.93-.81-2.19-1.25-4.17-1.29-4.39,0,0,0-.01,0-.02,0,0,0,0,0,0h0c-1.53-4.6-3.61-11.06-3.63-25.1h0Z"/></g><path class="cls-4" d="M128.14,111.62s.99-.22,1.62-1.52c0,0-1.18-.96-1.86-1.59,0,0-.7,.8,.24,3.11Z"/><g><path class="cls-2" d="M119.06,103.32c.48,1.06-.95,2.4-4.92-.33-3.96-2.73,2.79-4.34,4.92,.33Z"/><g><path class="cls-4" d="M116.93,103.55c.37,.1,.78,.11,1.23,.04-.14-.45-.59-1.42-1.91-1.78-.33-.09-.7-.13-1.1-.14,.17,.51,.65,1.56,1.78,1.87Z"/><path class="cls-2" d="M116.32,101.58l-.13,.47c.97,.26,1.43,.89,1.63,1.34-.3,.02-.58,0-.83-.07-.82-.22-1.26-.88-1.48-1.38,.24,.02,.47,.06,.68,.11h0s.13-.47,.13-.47h0Zm0,0c-.41-.11-.9-.17-1.48-.13,0,0,.36,1.89,2.03,2.34,.44,.12,.96,.14,1.6,0,0,0-.26-1.7-2.15-2.21h0Z"/></g><path class="cls-4" d="M116.5,102.19c-.13,.16,.31,.84,.88,1.07,.07,.03,.34,.14,.44,.03,.1-.11-.05-.39-.07-.43-.29-.54-1.11-.84-1.24-.67Z"/></g><g><path class="cls-4" d="M73.15,147.44c5.24,1.42,10.48,1.37,15.16-.15,3.52-1.14,6.7-3.13,8.51-5.32,1.71-2.07,2.43-4.95,2.14-8.53-.19-2.39-.8-4.55-1.22-5.8-.06,.18-.12,.34-.18,.49-.04,.1-.08,.2-.12,.31-1,2.57-3.09,7.91-15.69,9.08-5.34,.5-10.85-.2-15.7-.82-4.81-.61-8.99-1.14-11.63-.33,6.19,5.66,12.49,9.38,18.73,11.07Z"/><path class="cls-2" d="M97.72,128.39c.38,1.27,.83,3.09,.99,5.07,.28,3.52-.42,6.34-2.09,8.36-1.78,2.16-4.92,4.12-8.4,5.25-2.16,.7-4.45,1.09-6.8,1.16-2.68,.08-5.45-.26-8.22-1.01-6.09-1.65-12.24-5.25-18.3-10.71,2.61-.63,6.58-.12,11.11,.45,4.87,.62,10.39,1.32,15.76,.82,12.74-1.18,14.87-6.62,15.89-9.23,.02-.05,.04-.09,.05-.14h0Zm0-1.54c-.13,.46-.25,.86-.39,1.19-.98,2.44-2.64,8.03-15.61,9.24-10.89,1.01-22.57-2.98-27.78-1,6.92,6.4,13.39,9.85,19.13,11.4,12,3.24,20.82-1.79,23.92-5.55,4.11-4.99,1.51-13.14,.72-15.28h0Z"/></g><path class="cls-2" d="M91.81,136.79c-.04,.54,1.14,1.28,2.24,1.22,1.56-.07,2.82-1.74,2.55-2.26-.22-.42-1.46-.2-2.3-.04-.69,.13-2.44,.44-2.49,1.08Z"/><path class="cls-2" d="M74.35,139.43c.07-.54-1.06-1.34-2.16-1.35-1.56-.01-2.92,1.58-2.68,2.12,.19,.43,1.45,.28,2.29,.17,.7-.09,2.47-.31,2.55-.94Z"/><path class="cls-2" d="M82.32,140.99c.34-.42-.21-1.69-1.15-2.26-1.33-.81-3.33-.16-3.41,.42-.06,.47,1.1,.98,1.88,1.33,.64,.28,2.28,1.01,2.68,.51Z"/><path class="cls-2" d="M92.22,140.39c-.12,.4,.46,1,1.04,1.23,.99,.4,2.28-.14,2.33-.64,.04-.41-.73-.81-1.21-.96-.86-.27-2.01-.12-2.16,.37Z"/><path class="cls-2" d="M74.47,141.34c-.12,.4,.46,1,1.04,1.23,.99,.4,2.28-.14,2.33-.64,.04-.41-.73-.81-1.21-.96-.86-.27-2.01-.12-2.16,.37Z"/><path class="cls-2" d="M86.29,138.69c-.04,.65,.83,1.31,1.63,1.49,1.37,.3,2.94-.75,2.89-1.58-.04-.6-.93-1.04-1.51-1.18-1.31-.31-2.95,.42-3,1.27Z"/><path class="cls-2" d="M67.18,143.55c-.04,.59,.76,1.2,1.48,1.36,1.25,.27,2.68-.69,2.63-1.44-.03-.55-.84-.95-1.38-1.08-1.19-.29-2.69,.39-2.74,1.16Z"/><path class="cls-2" d="M79.81,145.66c-.04,.53,.84,1.05,1.52,1.24,1.23,.34,2.92-.14,3.14-1.1,.13-.58-.31-1.31-.9-1.58-.47-.21-.94-.05-1.86,.28-1.06,.38-1.86,.67-1.89,1.15Z"/><path class="cls-2" d="M87.64,141.86c-.19,.34,.66,1.39,1.73,1.74,.77,.25,1.73,.17,1.82-.14,.07-.24-.41-.58-.69-.77-1.07-.75-2.65-1.2-2.87-.82Z"/><path class="cls-2" d="M68.42,138.66c-.24-.56-2.4-.44-3.85,.6-1.05,.75-1.85,2.07-1.55,2.47,.24,.32,1.12,.02,1.64-.16,1.97-.67,4.04-2.28,3.76-2.91Z"/><path class="cls-2" d="M58.55,137.52c-.19,.34,.66,1.39,1.73,1.74,.77,.25,1.73,.17,1.82-.14,.07-.24-.41-.58-.69-.77-1.07-.75-2.65-1.2-2.87-.82Z"/><path class="cls-2" d="M76.13,146.24c.29-.26-.21-1.52-1.12-2.17-.66-.47-1.6-.68-1.79-.41-.14,.21,.21,.67,.42,.94,.79,1.03,2.17,1.93,2.49,1.64Z"/><g><path class="cls-4" d="M88.3,146.18c.05,.01,.11,.02,.16,.03,.31,.02,.6-.15,.76-.31,.11-.11,.15-.2,.15-.23-.01-.01-.07-.06-.22-.1-.13-.03-.26-.05-.3-.05-.36-.04-.81,.06-1,.22-.04,.04-.06,.06-.06,.07,0,.07,.19,.3,.52,.38Z"/><path class="cls-2" d="M88.99,145.78c-.13,.1-.32,.2-.51,.18-.04,0-.07,0-.11-.02-.09-.02-.17-.06-.23-.1,.16-.06,.42-.11,.68-.09,.03,0,.09,0,.17,.02h0Zm.22-.45c-.15-.04-.29-.06-.34-.06-.56-.06-1.29,.16-1.33,.5-.02,.24,.31,.54,.7,.64,.07,.02,.14,.03,.2,.04,.63,.04,1.24-.54,1.16-.85-.04-.14-.22-.23-.4-.27h0Z"/></g><path class="cls-2" d="M84.63,139.86c.24-.17,.2-.75-.07-1.11-.38-.5-1.22-.58-1.41-.32-.16,.22,.17,.68,.23,.77,.32,.46,.97,.86,1.26,.67Z"/><path class="cls-2" d="M64.16,138.5c.24-.17,.2-.75-.07-1.11-.38-.5-1.22-.58-1.41-.32-.16,.22,.17,.68,.23,.77,.32,.46,.97,.86,1.26,.67Z"/><path class="cls-2" d="M83.08,142c-.18,.23,.03,.78,.4,1.05,.51,.37,1.34,.2,1.44-.1,.08-.26-.36-.6-.44-.67-.45-.35-1.19-.54-1.4-.27Z"/><g><path class="cls-2" d="M77.03,160.66c1.76,.48,3.52,.81,5.25,1.01-1.2-.8-3.73-2.31-6.75-3.13-1.9-.51-3.71-.68-5.4-.49,1.12,.57,3.62,1.72,6.9,2.61Z"/><path class="cls-4" d="M75.47,158.78h0c2.35,.64,4.41,1.7,5.75,2.51-1.37-.2-2.75-.49-4.13-.86-2.62-.71-4.73-1.59-6.04-2.2,1.4-.05,2.87,.14,4.41,.55h0Zm.13-.47c-1.94-.52-4.08-.77-6.24-.39,0,0,3.02,1.74,7.61,2.98,1.85,.5,3.95,.92,6.22,1.11,0,0-3.27-2.53-7.59-3.7h0Z"/></g><path class="cls-2" d="M110.36,109.08c-.75-.28-1.67-.73-2.6-1.46-2.28-1.78-3.16-4.09-3.48-5.15-.08,.7-.08,1.73,.38,2.82,1.37,3.24,5.46,3.76,5.69,3.79Z"/></g></g><g><path class="cls-4" d="M90.6,160.64v-.76h.45v-5.15h-.45v-.75h2c.46,0,.89,.08,1.29,.23,.41,.16,.76,.38,1.07,.67s.55,.64,.72,1.05c.18,.41,.27,.87,.27,1.38,0,.38-.06,.76-.19,1.15-.13,.39-.34,.75-.63,1.07-.29,.32-.67,.59-1.14,.79-.47,.21-1.04,.31-1.71,.31h-1.67Zm1.24-.76h.67c.37,0,.72-.06,1.05-.18,.32-.12,.61-.29,.85-.52,.23-.22,.42-.49,.56-.8s.21-.67,.21-1.06-.07-.75-.21-1.07-.32-.59-.56-.82c-.24-.22-.52-.39-.85-.51-.32-.12-.67-.18-1.05-.18h-.67v5.15Z"/><path class="cls-4" d="M99.18,160.6c-.2,.09-.42,.13-.67,.13-.27,0-.52-.05-.75-.15-.23-.1-.43-.23-.6-.4-.17-.17-.31-.37-.4-.59-.1-.23-.15-.47-.15-.73s.05-.5,.15-.72c.1-.23,.23-.43,.4-.6,.17-.17,.37-.3,.6-.4,.23-.1,.48-.15,.75-.15,.2,0,.39,.04,.57,.12s.34,.19,.49,.33c.14,.14,.26,.31,.37,.5,.11,.19,.19,.4,.25,.63-.43,.16-.86,.32-1.29,.48-.43,.16-.86,.32-1.29,.48,.1,.13,.22,.24,.38,.32,.16,.08,.33,.12,.53,.12,.15,0,.28-.02,.4-.08,.12-.05,.23-.13,.32-.23l.49,.57c-.16,.16-.34,.28-.54,.37Zm-1.15-2.75c-.14,.06-.26,.14-.37,.25-.08,.09-.14,.19-.19,.3-.05,.11-.08,.24-.08,.37,.3-.11,.59-.22,.89-.33s.59-.22,.89-.33c-.09-.11-.19-.2-.3-.26s-.23-.1-.37-.1c-.18,0-.34,.03-.48,.09Z"/><path class="cls-4" d="M103.46,160.6c-.2,.09-.42,.13-.67,.13-.27,0-.52-.05-.75-.15-.23-.1-.43-.23-.6-.4-.17-.17-.31-.37-.4-.59-.1-.23-.15-.47-.15-.73s.05-.5,.15-.72c.1-.23,.23-.43,.4-.6,.17-.17,.37-.3,.6-.4,.23-.1,.48-.15,.75-.15,.2,0,.39,.04,.57,.12s.34,.19,.49,.33c.14,.14,.26,.31,.37,.5,.11,.19,.19,.4,.25,.63-.43,.16-.86,.32-1.29,.48-.43,.16-.86,.32-1.29,.48,.1,.13,.22,.24,.38,.32,.16,.08,.33,.12,.53,.12,.15,0,.28-.02,.4-.08,.12-.05,.23-.13,.32-.23l.49,.57c-.16,.16-.34,.28-.54,.37Zm-1.15-2.75c-.14,.06-.26,.14-.37,.25-.08,.09-.14,.19-.19,.3-.05,.11-.08,.24-.08,.37,.3-.11,.59-.22,.89-.33s.59-.22,.89-.33c-.09-.11-.19-.2-.3-.26s-.23-.1-.37-.1c-.18,0-.34,.03-.48,.09Z"/><path class="cls-4" d="M105.17,160.64v-.75h.72v-2.06h-.63v-.75h1.32l.04,.5c.01,.15,.02,.22,.01,.21,0-.01,0,.06,.01,.21,.08-.16,.17-.3,.29-.42,.12-.12,.24-.23,.37-.31,.13-.09,.26-.16,.38-.2,.12-.04,.23-.07,.33-.07l-.06,.78c-.16,0-.31,.02-.44,.06-.14,.04-.26,.09-.36,.16-.15,.1-.27,.23-.36,.39s-.13,.34-.13,.53v.98h.6v.75h-2.11Z"/><path class="cls-4" d="M111.55,160.64v-.75h.75v-5.16h-.75v-.75h2.3v.75h-.76v5.16h.76v.75h-2.3Z"/><path class="cls-4" d="M114.52,160.64v-.75h.72v-2.06h-.63v-.75h1.32v.09c.01,.15,.02,.29,.03,.41,0,.12,.02,.26,.03,.41,.13-.3,.33-.55,.61-.73s.59-.27,.94-.27c.38,0,.67,.1,.89,.29,.21,.2,.33,.45,.34,.77v1.84h.59v.75h-2.11v-.75h.73v-1.47c-.01-.17-.08-.32-.19-.44-.11-.12-.29-.19-.53-.21-.17,0-.32,.03-.47,.09-.15,.06-.28,.14-.4,.24s-.21,.22-.28,.36c-.07,.14-.11,.29-.11,.46v.98h.6v.75h-2.11Z"/><path class="cls-4" d="M122.58,160.62c-.2,.07-.41,.11-.64,.11-.27,0-.52-.05-.75-.15-.23-.1-.43-.23-.6-.4-.17-.17-.31-.37-.4-.59-.1-.23-.15-.47-.15-.73s.05-.5,.15-.72c.1-.23,.23-.43,.4-.59,.17-.17,.37-.31,.6-.4,.23-.1,.48-.15,.75-.15,.23,0,.45,.04,.66,.11,.2,.07,.39,.17,.55,.3v1.1h-.7v-.64c-.08-.04-.16-.07-.24-.08s-.17-.02-.26-.02c-.15,0-.29,.02-.42,.07-.13,.05-.24,.11-.34,.19-.11,.1-.2,.22-.26,.36-.06,.14-.09,.29-.09,.47,0,.16,.03,.31,.09,.45,.06,.14,.14,.26,.24,.36,.1,.09,.22,.16,.35,.21,.13,.05,.28,.08,.44,.08,.14,0,.27-.02,.39-.06,.12-.04,.23-.1,.33-.18l.48,.6c-.17,.13-.35,.23-.55,.3Z"/><path class="cls-4" d="M124.62,160.51c-.1,.09-.21,.14-.33,.14s-.24-.05-.34-.14-.15-.21-.15-.36,.05-.27,.15-.36,.22-.14,.34-.14,.23,.05,.33,.14,.15,.22,.15,.36-.05,.27-.15,.36Z"/></g></g><path class="cls-1" d="M220.29,35.34H108.77c-.78,0-1.4-.53-1.38-1.18l.75-18.56c.02-.61,.63-1.1,1.38-1.1h109.97c.74,0,1.35,.48,1.38,1.1l.81,18.56c.03,.64-.6,1.18-1.38,1.18Z"/><g><path class="cls-4" d="M122.99,27.72v-2.33l-1.46-3.55h.84l1.01,2.53,1.01-2.53h.84l-1.46,3.55v2.33h-.78Z"/><path class="cls-4" d="M127.74,27.79c-.16,0-.31-.01-.47-.04-.15-.03-.3-.08-.44-.14s-.26-.16-.37-.26-.19-.22-.26-.35c-.07-.13-.11-.26-.14-.41-.03-.14-.04-.29-.04-.42v-2.74c0-.14,.01-.28,.04-.42,.03-.14,.07-.28,.14-.41,.07-.13,.15-.25,.26-.36s.23-.19,.37-.26c.14-.07,.28-.12,.44-.15,.15-.03,.31-.05,.47-.05s.31,.02,.47,.05c.15,.04,.3,.08,.44,.15,.14,.07,.26,.15,.37,.26s.19,.23,.26,.36c.07,.13,.11,.27,.14,.41,.03,.14,.04,.29,.04,.42v2.74c0,.14-.01,.28-.04,.42-.03,.14-.07,.28-.14,.41-.07,.13-.15,.25-.26,.35s-.23,.19-.37,.26c-.14,.07-.28,.12-.44,.14-.15,.03-.31,.04-.47,.04Zm0-.64c.13,0,.26-.02,.39-.07,.13-.05,.23-.12,.32-.22s.14-.21,.17-.33c.03-.12,.04-.25,.04-.37v-2.74c0-.12-.02-.25-.05-.37-.03-.12-.09-.23-.17-.33-.08-.1-.19-.17-.32-.22-.13-.05-.27-.07-.41-.07s-.26,.03-.39,.08c-.12,.05-.23,.12-.31,.22s-.14,.21-.17,.33c-.03,.12-.04,.24-.04,.36v2.74c0,.12,.01,.25,.04,.37,.03,.12,.08,.23,.17,.33,.08,.1,.19,.17,.32,.22,.13,.05,.26,.07,.39,.07Z"/><path class="cls-4" d="M132.1,27.79c-.15,0-.3-.02-.46-.04-.15-.03-.3-.08-.43-.15s-.25-.16-.35-.27c-.1-.11-.18-.23-.24-.36-.06-.13-.1-.26-.13-.4s-.04-.28-.04-.42v-4.31h.78v4.31c0,.08,0,.16,.01,.24s.03,.15,.06,.23c.03,.08,.07,.15,.12,.22,.05,.07,.11,.12,.18,.17s.15,.08,.23,.1c.08,.02,.17,.03,.26,.03s.17-.01,.26-.03c.08-.02,.16-.06,.23-.1,.07-.05,.13-.11,.18-.17,.05-.07,.09-.14,.12-.22,.03-.08,.05-.16,.06-.23s.01-.16,.01-.24v-4.31h.78v4.31c0,.14-.01,.28-.03,.42-.02,.14-.07,.27-.13,.4-.06,.13-.14,.25-.24,.36-.1,.11-.22,.2-.35,.27-.13,.07-.27,.12-.43,.15-.15,.03-.31,.04-.46,.04Z"/><path class="cls-4" d="M136.14,24.34l-.53-.39c.19-.17,.35-.35,.51-.55,.15-.19,.27-.4,.36-.62h-.02c-.09,0-.19-.01-.28-.04-.09-.03-.17-.07-.24-.13-.06-.06-.11-.13-.14-.22-.03-.08-.04-.17-.04-.26,0-.09,.01-.18,.04-.26,.03-.08,.08-.16,.14-.22,.07-.06,.15-.1,.24-.13,.09-.02,.19-.04,.28-.04,.1,0,.19,.01,.29,.04,.09,.03,.17,.07,.24,.14,.07,.06,.11,.14,.14,.23,.03,.09,.04,.17,.04,.26,0,.2-.03,.4-.08,.6-.06,.2-.13,.39-.22,.58-.09,.18-.2,.36-.32,.53-.12,.17-.26,.33-.41,.48Z"/><path class="cls-4" d="M140.36,27.72l-1.37-5.88h.8l.84,3.92,.09,.42c.03,.14,.06,.28,.09,.42,.03-.14,.06-.29,.09-.42s.06-.28,.09-.42l.85-3.92h.8l-1.37,5.88h-.91Z"/><path class="cls-4" d="M143.6,27.72v-5.88h3.21v.64h-2.42v1.86h1.93v.64h-1.93v2.1h2.42v.64h-3.21Z"/><path class="cls-4" d="M153.56,27.79c-.14,0-.28-.02-.42-.05-.14-.03-.27-.09-.38-.17s-.21-.18-.29-.29c-.08-.11-.14-.23-.18-.35-.04-.12-.07-.25-.09-.38-.02-.13-.03-.26-.03-.39v-2.74c0-.14,.01-.28,.04-.42,.02-.14,.07-.28,.13-.41,.07-.13,.15-.25,.26-.36s.23-.19,.36-.26c.14-.07,.28-.12,.44-.14,.15-.03,.31-.04,.46-.04s.29,.01,.44,.03,.28,.06,.41,.12,.25,.13,.36,.23c.11,.09,.2,.2,.27,.32s.12,.24,.16,.37c.03,.13,.05,.26,.05,.4h0v.02h-.78c0-.12-.02-.23-.06-.34s-.1-.2-.18-.28c-.08-.08-.18-.14-.3-.18s-.24-.05-.36-.05c-.13,0-.26,.03-.39,.08-.12,.05-.23,.12-.3,.22-.08,.1-.13,.21-.16,.33-.03,.12-.04,.24-.04,.36v2.74c0,.12,.01,.25,.04,.37,.03,.12,.08,.23,.17,.33s.19,.17,.31,.22c.13,.05,.26,.08,.39,.08,.09,0,.17-.01,.26-.03,.09-.02,.17-.06,.24-.1,.07-.05,.13-.11,.18-.17,.05-.07,.09-.14,.11-.21,.03-.08,.04-.15,.06-.23s.02-.16,.02-.24v-1.01h-.85v-.64h1.64v3.22h-.71v-.9c-.04,.13-.1,.25-.17,.38-.07,.12-.16,.23-.27,.32-.11,.09-.23,.16-.38,.2-.15,.04-.29,.06-.44,.06Z"/><path class="cls-4" d="M158.24,27.79c-.16,0-.31-.01-.47-.04-.15-.03-.3-.08-.44-.14s-.26-.16-.37-.26-.19-.22-.26-.35c-.07-.13-.11-.26-.14-.41-.03-.14-.04-.29-.04-.42v-2.74c0-.14,.01-.28,.04-.42,.03-.14,.07-.28,.14-.41,.07-.13,.15-.25,.26-.36s.23-.19,.37-.26c.14-.07,.28-.12,.44-.15,.15-.03,.31-.05,.47-.05s.31,.02,.47,.05c.15,.04,.3,.08,.44,.15,.14,.07,.26,.15,.37,.26s.19,.23,.26,.36c.07,.13,.11,.27,.14,.41,.03,.14,.04,.29,.04,.42v2.74c0,.14-.01,.28-.04,.42-.03,.14-.07,.28-.14,.41-.07,.13-.15,.25-.26,.35s-.23,.19-.37,.26c-.14,.07-.28,.12-.44,.14-.15,.03-.31,.04-.47,.04Zm0-.64c.13,0,.26-.02,.39-.07,.13-.05,.23-.12,.32-.22s.14-.21,.17-.33c.03-.12,.04-.25,.04-.37v-2.74c0-.12-.02-.25-.05-.37-.03-.12-.09-.23-.17-.33-.08-.1-.19-.17-.32-.22-.13-.05-.27-.07-.41-.07s-.26,.03-.39,.08c-.12,.05-.23,.12-.31,.22s-.14,.21-.17,.33c-.03,.12-.04,.24-.04,.36v2.74c0,.12,.01,.25,.04,.37,.03,.12,.08,.23,.17,.33,.08,.1,.19,.17,.32,.22,.13,.05,.26,.07,.39,.07Z"/><path class="cls-4" d="M162.21,27.72v-5.24h-1.35v-.64h3.49v.64h-1.35v5.24h-.78Z"/><path class="cls-4" d="M171.18,27.72v-5.13l-1.13,.78-.43-.46,1.56-1.07h.78v5.88h-.78Z"/><path class="cls-4" d="M178.23,27.72v-5.88h.86l.94,3.18,.94-3.18h.86v5.88h-.78v-1.18c0-.3,0-.6,.01-.9s.02-.6,.04-.9c.01-.3,.03-.6,.05-.9,.02-.3,.03-.6,.04-.9l-.88,3h-.56l-.88-3c0,.3,.02,.6,.04,.9s.04,.6,.05,.9c.01,.3,.03,.6,.03,.9s.01,.6,.01,.9v1.18h-.78Z"/><path class="cls-4" d="M182.82,27.72v-5.88h3.21v.64h-2.42v1.86h1.93v.64h-1.93v2.1h2.42v.64h-3.21Z"/><path class="cls-4" d="M188.73,27.79c-.15,0-.3-.01-.44-.03-.15-.02-.29-.06-.42-.12-.13-.06-.25-.13-.37-.23-.11-.09-.2-.2-.27-.32-.07-.12-.13-.24-.16-.37-.04-.13-.05-.27-.05-.4v-.02h.78c0,.12,.02,.23,.06,.34,.04,.11,.1,.2,.19,.28s.19,.14,.31,.17,.24,.05,.37,.05,.25-.02,.38-.06,.23-.1,.31-.19,.15-.19,.19-.3c.04-.12,.06-.23,.06-.35,0-.13-.03-.26-.09-.39-.06-.12-.14-.23-.24-.33-.1-.09-.22-.17-.35-.23-.13-.06-.26-.12-.39-.18-.13-.06-.26-.12-.38-.19-.12-.07-.24-.14-.35-.22-.11-.08-.21-.17-.31-.28s-.18-.21-.24-.33c-.07-.12-.12-.24-.15-.37-.04-.13-.05-.26-.05-.4s.02-.27,.05-.4c.03-.14,.08-.26,.14-.38,.06-.12,.15-.23,.25-.33,.1-.1,.22-.18,.35-.25,.13-.06,.27-.11,.41-.14,.15-.03,.29-.04,.44-.04s.29,.01,.44,.04c.15,.02,.28,.07,.41,.12s.24,.14,.35,.23c.1,.1,.19,.2,.26,.32,.07,.12,.12,.24,.15,.37,.03,.13,.05,.26,.05,.39h0v.02h-.78v-.02c0-.11-.02-.21-.05-.32-.04-.11-.09-.2-.17-.28-.08-.08-.17-.14-.29-.18s-.23-.06-.35-.06-.24,.02-.36,.07c-.12,.05-.21,.11-.29,.2-.08,.09-.13,.19-.17,.3-.04,.11-.05,.22-.05,.34,0,.13,.03,.26,.09,.39,.06,.12,.14,.23,.24,.33,.1,.09,.22,.17,.34,.23s.26,.12,.39,.18c.13,.06,.26,.12,.38,.19s.24,.15,.36,.23c.11,.08,.22,.17,.31,.28s.18,.21,.24,.33,.12,.24,.15,.37c.04,.13,.05,.26,.05,.4,0,.14-.02,.28-.05,.41-.03,.14-.09,.27-.16,.39-.07,.12-.16,.23-.27,.33s-.23,.18-.37,.24c-.14,.06-.28,.11-.43,.13-.15,.02-.3,.04-.45,.04Z"/><path class="cls-4" d="M193.09,27.79c-.15,0-.3-.01-.44-.03-.15-.02-.29-.06-.42-.12-.13-.06-.25-.13-.37-.23-.11-.09-.2-.2-.27-.32-.07-.12-.13-.24-.16-.37-.04-.13-.05-.27-.05-.4v-.02h.78c0,.12,.02,.23,.06,.34,.04,.11,.1,.2,.19,.28s.19,.14,.31,.17,.24,.05,.37,.05,.25-.02,.38-.06,.23-.1,.31-.19,.15-.19,.19-.3c.04-.12,.06-.23,.06-.35,0-.13-.03-.26-.09-.39-.06-.12-.14-.23-.24-.33-.1-.09-.22-.17-.35-.23-.13-.06-.26-.12-.39-.18-.13-.06-.26-.12-.38-.19-.12-.07-.24-.14-.35-.22-.11-.08-.21-.17-.31-.28s-.18-.21-.24-.33c-.07-.12-.12-.24-.15-.37-.04-.13-.05-.26-.05-.4s.02-.27,.05-.4c.03-.14,.08-.26,.14-.38,.06-.12,.15-.23,.25-.33,.1-.1,.22-.18,.35-.25,.13-.06,.27-.11,.41-.14,.15-.03,.29-.04,.44-.04s.29,.01,.44,.04c.15,.02,.28,.07,.41,.12s.24,.14,.35,.23c.1,.1,.19,.2,.26,.32,.07,.12,.12,.24,.15,.37,.03,.13,.05,.26,.05,.39h0v.02h-.78v-.02c0-.11-.02-.21-.05-.32-.04-.11-.09-.2-.17-.28-.08-.08-.17-.14-.29-.18s-.23-.06-.35-.06-.24,.02-.36,.07c-.12,.05-.21,.11-.29,.2-.08,.09-.13,.19-.17,.3-.04,.11-.05,.22-.05,.34,0,.13,.03,.26,.09,.39,.06,.12,.14,.23,.24,.33,.1,.09,.22,.17,.34,.23s.26,.12,.39,.18c.13,.06,.26,.12,.38,.19s.24,.15,.36,.23c.11,.08,.22,.17,.31,.28s.18,.21,.24,.33,.12,.24,.15,.37c.04,.13,.05,.26,.05,.4,0,.14-.02,.28-.05,.41-.03,.14-.09,.27-.16,.39-.07,.12-.16,.23-.27,.33s-.23,.18-.37,.24c-.14,.06-.28,.11-.43,.13-.15,.02-.3,.04-.45,.04Z"/><path class="cls-4" d="M195.64,27.72l1.37-5.88h.91l1.37,5.88h-.8l-.31-1.44h-1.41l-.31,1.44h-.8Zm2.4-2.08l-.4-1.84c-.03-.14-.06-.28-.09-.42s-.06-.28-.09-.42c-.03,.14-.06,.29-.09,.42l-.09,.42-.4,1.84h1.15Z"/><path class="cls-4" d="M201.49,27.79c-.14,0-.28-.02-.42-.05-.14-.03-.27-.09-.38-.17s-.21-.18-.29-.29c-.08-.11-.14-.23-.18-.35-.04-.12-.07-.25-.09-.38-.02-.13-.03-.26-.03-.39v-2.74c0-.14,.01-.28,.04-.42,.02-.14,.07-.28,.13-.41,.07-.13,.15-.25,.26-.36s.23-.19,.36-.26c.14-.07,.28-.12,.44-.14,.15-.03,.31-.04,.46-.04s.29,.01,.44,.03,.28,.06,.41,.12,.25,.13,.36,.23c.11,.09,.2,.2,.27,.32s.12,.24,.16,.37c.03,.13,.05,.26,.05,.4h0v.02h-.78c0-.12-.02-.23-.06-.34s-.1-.2-.18-.28c-.08-.08-.18-.14-.3-.18s-.24-.05-.36-.05c-.13,0-.26,.03-.39,.08-.12,.05-.23,.12-.3,.22-.08,.1-.13,.21-.16,.33-.03,.12-.04,.24-.04,.36v2.74c0,.12,.01,.25,.04,.37,.03,.12,.08,.23,.17,.33s.19,.17,.31,.22c.13,.05,.26,.08,.39,.08,.09,0,.17-.01,.26-.03,.09-.02,.17-.06,.24-.1,.07-.05,.13-.11,.18-.17,.05-.07,.09-.14,.11-.21,.03-.08,.04-.15,.06-.23s.02-.16,.02-.24v-1.01h-.85v-.64h1.64v3.22h-.71v-.9c-.04,.13-.1,.25-.17,.38-.07,.12-.16,.23-.27,.32-.11,.09-.23,.16-.38,.2-.15,.04-.29,.06-.44,.06Z"/><path class="cls-4" d="M204.6,27.72v-5.88h3.21v.64h-2.42v1.86h1.93v.64h-1.93v2.1h2.42v.64h-3.21Z"/></g></g></g></svg>