<svg width="72" height="72" viewBox="0 0 72 72" fill="none" xmlns="http://www.w3.org/2000/svg">
<path d="M24.0823 55.8844C24.0823 56.1656 23.7484 56.3906 23.3274 56.3906C22.8484 56.4328 22.5145 56.2078 22.5145 55.8844C22.5145 55.6031 22.8484 55.3781 23.2694 55.3781C23.7048 55.3359 24.0823 55.5609 24.0823 55.8844ZM19.5677 55.2516C19.4661 55.5328 19.7565 55.8562 20.1919 55.9406C20.5694 56.0812 21.0048 55.9406 21.0919 55.6594C21.179 55.3781 20.9032 55.0547 20.4677 54.9281C20.0903 54.8297 19.6694 54.9703 19.5677 55.2516ZM25.9839 55.0125C25.5629 55.1109 25.2726 55.3781 25.3161 55.7016C25.3597 55.9828 25.7371 56.1656 26.1726 56.0672C26.5935 55.9688 26.8839 55.7016 26.8403 55.4203C26.7968 55.1531 26.4048 54.9703 25.9839 55.0125ZM35.5355 1.125C15.4016 1.125 0 15.9328 0 35.4375C0 51.0328 10.1323 64.3781 24.6048 69.075C26.4629 69.3984 27.1161 68.2875 27.1161 67.3734C27.1161 66.5016 27.0726 61.6922 27.0726 58.7391C27.0726 58.7391 16.9113 60.8484 14.7774 54.5484C14.7774 54.5484 13.1226 50.4562 10.7419 49.4016C10.7419 49.4016 7.41774 47.1937 10.9742 47.2359C10.9742 47.2359 14.5887 47.5172 16.5774 50.8641C19.7565 56.2922 25.0839 54.7313 27.1597 53.8031C27.4935 51.5531 28.4371 49.9922 29.4823 49.0641C21.3677 48.1922 13.1806 47.0531 13.1806 33.525C13.1806 29.6578 14.2839 27.7172 16.6065 25.2422C16.229 24.3281 14.9952 20.5594 16.9839 15.6937C20.0177 14.7797 27 19.4906 27 19.4906C29.9032 18.7031 33.0242 18.2953 36.1161 18.2953C39.2081 18.2953 42.329 18.7031 45.2323 19.4906C45.2323 19.4906 52.2145 14.7656 55.2484 15.6937C57.2371 20.5734 56.0032 24.3281 55.6258 25.2422C57.9484 27.7313 59.371 29.6719 59.371 33.525C59.371 47.0953 50.821 48.1781 42.7065 49.0641C44.0419 50.175 45.1742 52.2844 45.1742 55.5891C45.1742 60.3281 45.1306 66.1922 45.1306 67.3453C45.1306 68.2594 45.7984 69.3703 47.6419 69.0469C62.1581 64.3781 72 51.0328 72 35.4375C72 15.9328 55.6694 1.125 35.5355 1.125ZM14.1097 49.6266C13.921 49.7672 13.9645 50.0906 14.2113 50.3578C14.4435 50.5828 14.7774 50.6813 14.9661 50.4984C15.1548 50.3578 15.1113 50.0344 14.8645 49.7672C14.6323 49.5422 14.2984 49.4437 14.1097 49.6266ZM12.5419 48.4875C12.4403 48.6703 12.5855 48.8953 12.8758 49.0359C13.1081 49.1766 13.3984 49.1344 13.5 48.9375C13.6016 48.7547 13.4565 48.5297 13.1661 48.3891C12.8758 48.3047 12.6435 48.3469 12.5419 48.4875ZM17.2452 53.4937C17.0129 53.6766 17.1 54.0984 17.4339 54.3656C17.7677 54.6891 18.1887 54.7313 18.3774 54.5063C18.5661 54.3234 18.479 53.9016 18.1887 53.6344C17.8694 53.3109 17.4339 53.2687 17.2452 53.4937ZM15.5903 51.4266C15.3581 51.5672 15.3581 51.9328 15.5903 52.2563C15.8226 52.5797 16.2145 52.7203 16.4032 52.5797C16.6355 52.3969 16.6355 52.0312 16.4032 51.7078C16.2 51.3844 15.8226 51.2438 15.5903 51.4266Z" fill="white"/>
</svg>
